# xmcd
#
# Track frame offsets: 
#        150
#        19735
#        42473
#        61102
#        85350
#        104262
#        124104
#        144796
#        165910
#        183058
#        202028
#        223840
#        239379
#        263976
#        285002
#
# Disc length: 4029 seconds
#
# Revision: 0
# Processed by: cddbd v1.5.2PL0 Copyright (c) Steve Scherf et al.
# Submitted via: ExactAudioCopyFreeDBPlugin 1.0
#
DISCID=c90fbb0f
DTITLE=刘紫玲 - [DTS ES  正品]【NRG】《 柔情蜜语 》
DYEAR=2009
DGENRE=DTS ES
TTITLE0=爱你真好难
TTITLE1=潮湿的心
TTITLE2=东方商人
TTITLE3=杜十娘
TTITLE4=放弃我是你的错
TTITLE5=久别的人
TTITLE6=美人吟
TTITLE7=抹去泪水
TTITLE8=前缘
TTITLE9=山茶花
TTITLE10=相见无几时
TTITLE11=哑巴新娘
TTITLE12=月满西楼
TTITLE13=真的好想你
TTITLE14=追求
EXTD=
EXTT0=
EXTT1=
EXTT2=
EXTT3=
EXTT4=
EXTT5=
EXTT6=
EXTT7=
EXTT8=
EXTT9=
EXTT10=
EXTT11=
EXTT12=
EXTT13=
EXTT14=
PLAYORDER=
